<?xml version="1.0" encoding="UTF-8"?>
<svg width="48" height="48" viewBox="0 0 48 48" fill="none" xmlns="http://www.w3.org/2000/svg">
  <circle cx="24" cy="24" r="24" fill="#E8F1FF"/>
  <path d="M24 12C17.3726 12 12 17.3726 12 24C12 30.6274 17.3726 36 24 36C30.6274 36 36 30.6274 36 24C36 17.3726 30.6274 12 24 12ZM24 34C18.4772 34 14 29.5228 14 24C14 18.4772 18.4772 14 24 14C29.5228 14 34 18.4772 34 24C34 29.5228 29.5228 34 24 34Z" fill="#2563EB"/>
  <circle cx="19" cy="22" r="2" fill="#2563EB"/>
  <circle cx="29" cy="22" r="2" fill="#2563EB"/>
  <path d="M24 28C26.2091 28 28 26.2091 28 24H20C20 26.2091 21.7909 28 24 28Z" fill="#2563EB"/>
</svg>
